<svg width="60" height="60" viewBox="0 0 60 60" fill="none" xmlns="http://www.w3.org/2000/svg">
<path d="M12 15H2.34002C1.23002 15 0.120019 15.96 0.270019 17.52L4.95002 47.49C4.95002 47.49 10.5 25.41 11.58 20.1C11.91 18.51 13.41 18 14.52 18H30C30 18 27.9 11.76 27.69 11.07C27.33 9.75 26.67 9 25.35 9H15.42C14.34 9 13.32 9.69 13.02 10.92C12.75 12.12 12 15 12 15ZM26.64 15H14.64C14.64 15 15.9 12 17.25 12H23.64C25.08 12 26.64 15 26.64 15ZM8.01002 48.75C7.08002 50.16 5.73002 51 4.23002 51H51.42C53.04 51 54.18 50.07 54.51 48.51C55.83 41.94 59.55 23.19 59.55 23.19C59.76 21.69 58.65 21 57.69 21H48V16.59C48 16.11 47.22 15 46.02 15H34.74C33.18 15 32.13 16.74 32.13 16.74L30 21H16.77C15.81 21 14.88 21.57 14.7 22.5C14.7 22.5 9.93002 42.6 9.54002 44.49C9.33002 45.6 8.88002 47.46 8.01002 48.75V48.75ZM46.14 21H33C33 21 34.74 18 36.39 18H43.26C45.39 18 46.14 21 46.14 21V21Z" fill="black"/>
</svg>
